<svg id="SvgjsSvg1000" xmlns="http://www.w3.org/2000/svg" version="1.1" xmlns:xlink="http://www.w3.org/1999/xlink" xmlns:svgjs="http://svgjs.com/svgjs" width="418" height="418" viewBox="0 0 418 418"><title>Group 1 copy</title><desc>Created with Avocode.</desc><defs id="SvgjsDefs1001"><clipPath id="SvgjsClipPath1009"><path id="SvgjsPath1008" d="M457 468V368H458V468Z " fill="#ffffff"></path></clipPath><clipPath id="SvgjsClipPath1012"><path id="SvgjsPath1011" d="M457 368V367H557V368Z " fill="#ffffff"></path></clipPath><clipPath id="SvgjsClipPath1015"><path id="SvgjsPath1014" d="M874 468V368H875V468Z " fill="#ffffff"></path></clipPath><clipPath id="SvgjsClipPath1018"><path id="SvgjsPath1017" d="M775 368V367H875V368Z " fill="#ffffff"></path></clipPath><clipPath id="SvgjsClipPath1021"><path id="SvgjsPath1020" d="M457 784V684H458V784Z " fill="#ffffff"></path></clipPath><clipPath id="SvgjsClipPath1024"><path id="SvgjsPath1023" d="M457 785V784H557V785Z " fill="#ffffff"></path></clipPath><clipPath id="SvgjsClipPath1027"><path id="SvgjsPath1026" d="M874 784V684H875V784Z " fill="#ffffff"></path></clipPath><clipPath id="SvgjsClipPath1030"><path id="SvgjsPath1029" d="M775 785V784H875V785Z " fill="#ffffff"></path></clipPath></defs><path id="SvgjsPath1007" d="M457 468V368H458V468Z " fill-opacity="0" fill="#ffffff" stroke-dashoffset="0" stroke-linejoin="miter" stroke-linecap="butt" stroke-opacity="1" stroke="#ffcc00" stroke-miterlimit="50" stroke-width="8" clip-path="url(&quot;#SvgjsClipPath1009&quot;)" transform="matrix(1,0,0,1,-457,-367)"></path><path id="SvgjsPath1010" d="M457 368V367H557V368Z " fill-opacity="0" fill="#ffffff" stroke-dashoffset="0" stroke-linejoin="miter" stroke-linecap="butt" stroke-opacity="1" stroke="#ffcc00" stroke-miterlimit="50" stroke-width="8" clip-path="url(&quot;#SvgjsClipPath1012&quot;)" transform="matrix(1,0,0,1,-457,-367)"></path><path id="SvgjsPath1013" d="M874 468V368H875V468Z " fill-opacity="0" fill="#ffffff" stroke-dashoffset="0" stroke-linejoin="miter" stroke-linecap="butt" stroke-opacity="1" stroke="#ffcc00" stroke-miterlimit="50" stroke-width="8" clip-path="url(&quot;#SvgjsClipPath1015&quot;)" transform="matrix(1,0,0,1,-457,-367)"></path><path id="SvgjsPath1016" d="M775 368V367H875V368Z " fill-opacity="0" fill="#ffffff" stroke-dashoffset="0" stroke-linejoin="miter" stroke-linecap="butt" stroke-opacity="1" stroke="#ffcc00" stroke-miterlimit="50" stroke-width="8" clip-path="url(&quot;#SvgjsClipPath1018&quot;)" transform="matrix(1,0,0,1,-457,-367)"></path><path id="SvgjsPath1019" d="M457 784V684H458V784Z " fill-opacity="0" fill="#ffffff" stroke-dashoffset="0" stroke-linejoin="miter" stroke-linecap="butt" stroke-opacity="1" stroke="#ffcc00" stroke-miterlimit="50" stroke-width="8" clip-path="url(&quot;#SvgjsClipPath1021&quot;)" transform="matrix(1,0,0,1,-457,-367)"></path><path id="SvgjsPath1022" d="M457 785V784H557V785Z " fill-opacity="0" fill="#ffffff" stroke-dashoffset="0" stroke-linejoin="miter" stroke-linecap="butt" stroke-opacity="1" stroke="#ffcc00" stroke-miterlimit="50" stroke-width="8" clip-path="url(&quot;#SvgjsClipPath1024&quot;)" transform="matrix(1,0,0,1,-457,-367)"></path><path id="SvgjsPath1025" d="M874 784V684H875V784Z " fill-opacity="0" fill="#ffffff" stroke-dashoffset="0" stroke-linejoin="miter" stroke-linecap="butt" stroke-opacity="1" stroke="#ffcc00" stroke-miterlimit="50" stroke-width="8" clip-path="url(&quot;#SvgjsClipPath1027&quot;)" transform="matrix(1,0,0,1,-457,-367)"></path><path id="SvgjsPath1028" d="M775 785V784H875V785Z " fill-opacity="0" fill="#ffffff" stroke-dashoffset="0" stroke-linejoin="miter" stroke-linecap="butt" stroke-opacity="1" stroke="#ffcc00" stroke-miterlimit="50" stroke-width="8" clip-path="url(&quot;#SvgjsClipPath1030&quot;)" transform="matrix(1,0,0,1,-457,-367)"></path></svg>