<svg id="SvgjsSvg1016" xmlns="http://www.w3.org/2000/svg" version="1.1" xmlns:xlink="http://www.w3.org/1999/xlink" xmlns:svgjs="http://svgjs.com/svgjs" width="50" height="12" viewBox="0 0 50 12"><title>pagination</title><desc>Created with Avocode.</desc><defs id="SvgjsDefs1017"><clipPath id="SvgjsClipPath1020"><path id="SvgjsPath1019" d="M957 892C960.314 892 963 894.686 963 898C963 901.314 960.314 904 957 904C953.686 904 951 901.314 951 898C951 894.686 953.686 892 957 892Z " fill="#ffffff"></path></clipPath></defs><path id="SvgjsPath1018" d="M957 892C960.314 892 963 894.686 963 898C963 901.314 960.314 904 957 904C953.686 904 951 901.314 951 898C951 894.686 953.686 892 957 892Z " fill-opacity="0" fill="#ffffff" stroke-dashoffset="0" stroke-linejoin="miter" stroke-linecap="butt" stroke-opacity="1" stroke="#ffcc00" stroke-miterlimit="50" stroke-width="2" clip-path="url(&quot;#SvgjsClipPath1020&quot;)" transform="matrix(1,0,0,1,-932,-892)"></path><path id="SvgjsPath1021" d="M977 893C979.761 893 982 895.239 982 898C982 900.761 979.761 903 977 903C974.239 903 972 900.761 972 898C972 895.239 974.239 893 977 893Z " fill="#ffcc00" fill-opacity="1" transform="matrix(1,0,0,1,-932,-892)"></path><path id="SvgjsPath1022" d="M937 893C939.761 893 942 895.239 942 898C942 900.761 939.761 903 937 903C934.239 903 932 900.761 932 898C932 895.239 934.239 893 937 893Z " fill="#ffcc00" fill-opacity="1" transform="matrix(1,0,0,1,-932,-892)"></path></svg>