<svg id="SvgjsSvg1000" xmlns="http://www.w3.org/2000/svg" version="1.1" xmlns:xlink="http://www.w3.org/1999/xlink" xmlns:svgjs="http://svgjs.com/svgjs" width="12" height="12" viewBox="0 0 12 12"><title>Ellipse 2</title><desc>Created with Avocode.</desc><defs id="SvgjsDefs1001"><clipPath id="SvgjsClipPath1009"><path id="SvgjsPath1008" d="M957 892C960.314 892 963 894.686 963 898C963 901.314 960.314 904 957 904C953.686 904 951 901.314 951 898C951 894.686 953.686 892 957 892Z " fill="#ffffff"></path></clipPath></defs><path id="SvgjsPath1007" d="M957 892C960.314 892 963 894.686 963 898C963 901.314 960.314 904 957 904C953.686 904 951 901.314 951 898C951 894.686 953.686 892 957 892Z " fill-opacity="0" fill="#ffffff" stroke-dashoffset="0" stroke-linejoin="miter" stroke-linecap="butt" stroke-opacity="1" stroke="#ffcc00" stroke-miterlimit="50" stroke-width="2" clip-path="url(&quot;#SvgjsClipPath1009&quot;)" transform="matrix(1,0,0,1,-951,-892)"></path></svg>